# xmcd
#
# Track frame offsets:
#	150
#	22100
#	41762
#	73736
#	89725
#	105934
#	131289
#	162009
#
# Disc length: 2467 seconds
#
# Revision: 5
# Processed by: cddbd v1.5.2PL0 Copyright (c) Steve Scherf et al.
# Submitted via: Jack! The Knife
#
DISCID=6409a108
DTITLE=Heathen - Breaking The Silence
DYEAR=1985
DGENRE=Heavy Metal
TTITLE0=Death By Hanging
TTITLE1=Goblins Blade
TTITLE2=Open The Grave
TTITLE3=Pray For Death
TTITLE4=Set Me Free
TTITLE5=Breaking The Silence
TTITLE6=Worlds End
TTITLE7=Save The Skull
EXTD=
EXTT0=
EXTT1=
EXTT2=
EXTT3=
EXTT4=
EXTT5=
EXTT6=
EXTT7=
PLAYORDER=
